# Blender 4.4.1
# www.blender.org
mtllib desk.mtl
o Cube
v -0.398835 0.354817 -1.000000
v -0.398835 -0.354817 -1.000000
v -0.398835 0.354817 1.000000
v -0.398835 -0.354817 1.000000
v -0.498817 0.354817 -1.000000
v -0.498817 -0.354817 -1.000000
v -0.498817 0.354817 1.000000
v -0.498817 -0.354817 1.000000
v -0.498817 -0.354817 0.903064
v -0.398835 0.354817 0.903064
v -0.498817 0.354817 0.903064
v -0.398835 -0.354817 0.903064
v -0.498817 0.354817 -0.871128
v -0.398835 -0.354817 -0.871128
v -0.498817 -0.354817 -0.871128
v -0.398835 0.354817 -0.871128
v 0.411187 0.354817 1.000000
v 0.411187 -0.354817 1.000000
v 0.411187 0.354817 0.903064
v 0.411187 -0.354817 0.903064
v 0.408800 0.354817 -1.000000
v 0.408800 -0.354817 -1.000000
v 0.408800 -0.354817 -0.871128
v 0.408800 0.354817 -0.871128
v -0.398835 0.315297 -1.000000
v -0.498817 0.315297 1.000000
v -0.398835 0.315297 1.000000
v -0.498817 0.315297 -1.000000
v -0.398835 0.315297 0.903064
v -0.498817 0.315297 0.903064
v -0.398835 0.315297 -0.871128
v -0.498817 0.315297 -0.871128
v 0.411187 0.315297 1.000000
v 0.411187 0.315297 0.903064
v 0.408800 0.315297 -1.000000
v 0.408800 0.315297 -0.871128
vn -0.0000 1.0000 -0.0000
vn -0.0000 -0.0000 1.0000
vn -1.0000 -0.0000 -0.0000
vn -0.0000 -1.0000 -0.0000
vn -0.0000 -0.0000 -1.0000
vn 1.0000 -0.0000 -0.0013
vn 1.0000 -0.0000 -0.0000
vt 0.625000 0.737883
vt 0.875000 0.737883
vt 0.875000 0.750000
vt 0.625000 0.750000
vt 0.611077 0.750000
vt 0.625000 1.000000
vt 0.611077 1.000000
vt 0.611077 0.233891
vt 0.625000 0.233891
vt 0.625000 0.250000
vt 0.611077 0.250000
vt 0.125000 0.737883
vt 0.375000 0.737883
vt 0.375000 0.750000
vt 0.125000 0.750000
vt 0.625000 0.500000
vt 0.611077 0.500000
vt 0.625000 0.516109
vt 0.611077 0.737883
vt 0.611077 0.516109
vt 0.125000 0.516109
vt 0.375000 0.516109
vt 0.611077 0.000000
vt 0.625000 0.000000
vt 0.625000 0.012117
vt 0.611077 0.012117
vt 0.875000 0.516109
vt 0.875000 0.500000
vt 0.125000 0.500000
vt 0.375000 0.500000
vt 0.375000 0.012117
vt 0.375000 0.233891
vt 0.375000 0.000000
vt 0.375000 0.250000
vt 0.375000 1.000000
s 0
usemtl Material
f 10/1/1 11/2/1 7/3/1 3/4/1
f 27/5/2 3/4/2 7/6/2 26/7/2
f 32/8/3 13/9/3 5/10/3 28/11/3
f 9/12/4 12/13/4 4/14/4 8/15/4
f 27/5/2 4/14/2 18/14/2 33/5/2
f 28/11/5 5/10/5 1/16/5 25/17/5
f 24/18/6 19/1/6 34/19/6 36/20/6
f 15/21/4 14/22/4 12/13/4 9/12/4
f 26/23/3 7/24/3 11/25/3 30/26/3
f 16/18/1 13/27/1 11/2/1 10/1/1
f 1/16/1 5/28/1 13/27/1 16/18/1
f 6/29/4 2/30/4 14/22/4 15/21/4
f 31/20/2 14/22/2 23/22/2 36/20/2
f 30/26/3 11/25/3 13/9/3 32/8/3
f 34/19/7 19/1/7 17/4/7 33/5/7
f 4/14/4 12/13/4 20/13/4 18/14/4
f 10/1/1 3/4/1 17/4/1 19/1/1
f 16/18/1 10/1/1 19/1/1 24/18/1
f 35/17/7 21/16/7 24/18/7 36/20/7
f 25/17/5 1/16/5 21/16/5 35/17/5
f 14/22/4 2/30/4 22/30/4 23/22/4
f 1/16/1 16/18/1 24/18/1 21/16/1
f 2/30/5 25/17/5 35/17/5 22/30/5
f 22/30/7 35/17/7 36/20/7 23/22/7
f 12/13/5 29/19/5 34/19/5 20/13/5
f 20/13/7 34/19/7 33/5/7 18/14/7
f 9/31/3 30/26/3 32/8/3 15/32/3
f 34/19/4 29/19/4 31/20/4 36/20/4
f 8/33/3 26/23/3 30/26/3 9/31/3
f 14/22/7 31/20/7 29/19/7 12/13/7
f 6/34/5 28/11/5 25/17/5 2/30/5
f 3/4/2 27/5/2 33/5/2 17/4/2
f 15/32/3 32/8/3 28/11/3 6/34/3
f 4/14/2 27/5/2 26/7/2 8/35/2
