# Blender 4.3.2
# www.blender.org
mtllib barrel.mtl
o barrel
v 4.520279 -0.000001 0.065253
v 3.965965 -0.000001 -2.003477
v 4.397324 2.140728 -2.252519
v 5.018364 2.140727 0.065253
v 2.451553 -0.000001 -3.517892
v 2.700592 2.140727 -3.949244
v 0.382820 -0.000001 -4.072206
v 0.382828 2.140727 -4.570289
v -1.685913 -0.000001 -3.517890
v -1.934944 2.140728 -3.949244
v -3.200325 -0.000001 -2.003477
v -3.631668 2.140728 -2.252520
v -3.754639 -0.000001 0.065252
v -4.252716 2.140727 0.065251
v -3.200325 -0.000000 2.133982
v -3.631676 2.140728 2.383023
v -1.685913 -0.000000 3.648396
v -1.934944 2.140728 4.079749
v 0.382820 -0.000000 4.202711
v 0.382820 2.140728 4.700795
v 2.451546 -0.000000 3.648398
v 2.700592 2.140729 4.079751
v 3.965965 -0.000000 2.133985
v 4.397324 2.140728 2.383027
v 5.130348 2.785582 0.065253
v 4.494301 2.785582 -2.308509
v 4.709030 4.916900 -2.432483
v 5.378296 4.916900 0.065253
v 2.756584 2.785583 -4.046223
v 2.880562 4.916900 -4.260952
v 0.382828 2.785583 -4.682270
v 0.382828 4.916900 -4.930215
v -1.990936 2.785583 -4.046223
v -2.114906 4.916901 -4.260951
v -3.728645 2.785583 -2.308511
v -3.943375 4.916900 -2.432484
v -4.364693 2.785583 0.065251
v -4.612648 4.916901 0.065251
v -3.728645 2.785583 2.439013
v -3.943375 4.916900 2.562985
v -1.990936 2.785583 4.176727
v -2.114906 4.916901 4.391455
v 0.382820 2.785584 4.812776
v 0.382828 4.916901 5.060721
v 2.756584 2.785584 4.176730
v 2.880562 4.916901 4.391457
v 4.494301 2.785583 2.439017
v 4.709030 4.916901 2.562991
v 4.709030 7.375351 -2.432484
v 5.378296 7.375350 0.065252
v 2.880562 7.375351 -4.260953
v 0.382828 7.375351 -4.930216
v -2.114906 7.375351 -4.260953
v -3.943375 7.375351 -2.432485
v -4.612648 7.375351 0.065250
v -3.943375 7.375350 2.562987
v -2.114906 7.375350 4.391455
v 0.382828 7.375351 5.060721
v 2.880562 7.375351 4.391457
v 4.709030 7.375351 2.562991
v 4.494301 9.506667 -2.308510
v 5.130348 9.506667 0.065252
v 2.756584 9.506667 -4.046224
v 0.382828 9.506666 -4.682271
v -1.990936 9.506670 -4.046224
v -3.728645 9.506670 -2.308511
v -4.364693 9.506667 0.065250
v -3.728653 9.506667 2.439012
v -1.990936 9.506667 4.176726
v 0.382820 9.506667 4.812776
v 2.756584 9.506670 4.176729
v 4.494301 9.506668 2.439016
v 5.018364 10.151522 0.065252
v 4.397324 10.151522 -2.252520
v 3.965965 12.292252 -2.003478
v 4.520279 12.292251 0.065252
v 2.700592 10.151522 -3.949245
v 2.451553 12.292252 -3.517893
v 0.382828 10.151522 -4.570290
v 0.382820 12.292252 -4.072206
v -1.934944 10.151525 -3.949245
v -1.685913 12.292253 -3.517891
v -3.631668 10.151524 -2.252520
v -3.200325 12.292252 -2.003478
v -4.252716 10.151522 0.065250
v -3.754639 12.292252 0.065251
v -3.631676 10.151522 2.383022
v -3.200325 12.292250 2.133981
v -1.934944 10.151523 4.079748
v -1.685913 12.292252 3.648395
v 0.382820 10.151523 4.700794
v 0.382820 12.292253 4.202710
v 2.700592 10.151525 4.079750
v 2.451546 12.292253 3.648397
v 4.397324 10.151522 2.383026
v 3.965965 12.292252 2.133984
v 3.801872 11.861223 2.039244
v 4.330803 11.861222 0.065252
v 3.801872 11.861223 -1.908736
v 2.356804 11.861223 -3.353797
v 0.382820 11.861223 -3.882725
v -1.591164 11.861222 -3.353797
v -3.036232 11.861223 -1.908737
v -3.565155 11.861226 0.065250
v -3.036232 11.861222 2.039240
v -1.591164 11.861223 3.484300
v 0.382820 11.861227 4.013229
v 2.356804 11.861224 3.484302
v 3.704750 12.292252 -1.852663
v 4.218651 12.292251 0.065252
v 2.300735 12.292252 -3.256676
v 0.382820 12.292252 -3.770580
v -1.535095 12.292251 -3.256676
v -2.939110 12.292253 -1.852665
v -3.453011 12.292253 0.065250
v -2.939110 12.292252 1.983168
v -1.535103 12.292252 3.387180
v 0.382820 12.292253 3.901084
v 2.300735 12.292252 3.387182
v 3.704750 12.292252 1.983171
v 4.515579 2.104897 -2.320795
v 4.612556 2.749752 -2.376786
v 5.266899 2.749752 0.065253
v 5.154922 2.104897 0.065253
v 2.768875 2.104897 -4.067504
v 2.824860 2.749752 -4.164483
v 0.382828 2.104897 -4.706841
v 0.382828 2.749752 -4.818823
v -2.003220 2.104897 -4.067504
v -2.059212 2.749753 -4.164483
v -3.749931 2.104897 -2.320796
v -3.846909 2.749753 -2.376788
v -4.389275 2.104897 0.065251
v -4.501251 2.749753 0.065251
v -3.749931 2.104897 2.451300
v -3.846909 2.749753 2.507290
v -2.003227 2.104898 4.198008
v -2.059212 2.749753 4.294986
v 0.382820 2.104898 4.837348
v 0.382820 2.749753 4.949329
v 2.768867 2.104898 4.198010
v 2.824860 2.749754 4.294989
v 4.515579 2.104897 2.451303
v 4.612556 2.749753 2.507294
v 4.612564 9.542498 -2.376786
v 4.515579 10.187353 -2.320796
v 5.154922 10.187353 0.065252
v 5.266899 9.542498 0.065252
v 2.824860 9.542498 -4.164484
v 2.768875 10.187353 -4.067505
v 0.382828 9.542498 -4.818824
v 0.382828 10.187352 -4.706842
v -2.059212 9.542501 -4.164482
v -2.003227 10.187356 -4.067504
v -3.846909 9.542500 -2.376788
v -3.749931 10.187355 -2.320797
v -4.501251 9.542498 0.065250
v -4.389275 10.187353 0.065250
v -3.846909 9.542499 2.507289
v -3.749931 10.187353 2.451299
v -2.059212 9.542499 4.294985
v -2.003227 10.187353 4.198007
v 0.382820 9.542499 4.949328
v 0.382820 10.187353 4.837347
v 2.824860 9.542500 4.294988
v 2.768867 10.187354 4.198009
v 4.612556 9.542499 2.507293
v 4.515579 10.187354 2.451303
vn 0.9615 -0.2749 -0.0000
vn 0.8326 -0.2750 -0.4807
vn 0.3653 -0.9067 -0.2109
vn 0.4217 -0.9067 -0.0000
vn 0.4807 -0.2750 -0.8326
vn 0.2109 -0.9067 -0.3653
vn -0.0000 -0.2750 -0.9615
vn -0.0000 -0.9067 -0.4218
vn -0.4807 -0.2750 -0.8326
vn -0.2109 -0.9067 -0.3653
vn -0.8326 -0.2750 -0.4807
vn -0.3653 -0.9067 -0.2109
vn -0.9615 -0.2749 -0.0000
vn -0.4218 -0.9067 -0.0000
vn -0.8326 -0.2750 0.4807
vn -0.3652 -0.9067 0.2109
vn -0.4807 -0.2749 0.8326
vn -0.2109 -0.9067 0.3653
vn -0.0000 -0.2750 0.9615
vn -0.0000 -0.9067 0.4218
vn 0.4807 -0.2750 0.8326
vn 0.2109 -0.9067 0.3653
vn 0.8326 -0.2750 0.4807
vn 0.3652 -0.9067 0.2109
vn 0.7752 0.6317 -0.0000
vn 0.6713 0.6317 -0.3876
vn 0.8639 -0.0701 -0.4988
vn 0.9975 -0.0701 -0.0000
vn 0.3876 0.6317 -0.6713
vn 0.4988 -0.0701 -0.8639
vn -0.0000 0.6317 -0.7752
vn -0.0000 -0.0701 -0.9975
vn -0.3876 0.6317 -0.6713
vn -0.4988 -0.0701 -0.8639
vn -0.6713 0.6317 -0.3876
vn -0.8639 -0.0701 -0.4988
vn -0.7752 0.6317 -0.0000
vn -0.9975 -0.0701 -0.0000
vn -0.6713 0.6317 0.3876
vn -0.8639 -0.0701 0.4988
vn -0.3876 0.6317 0.6713
vn -0.4988 -0.0701 0.8639
vn -0.0000 0.6317 0.7752
vn -0.0000 -0.0701 0.9975
vn 0.3876 0.6317 0.6713
vn 0.4988 -0.0701 0.8639
vn 0.6713 0.6317 0.3876
vn 0.8639 -0.0701 0.4988
vn 0.8639 0.0701 -0.4988
vn 0.9975 0.0701 -0.0000
vn 0.4988 0.0701 -0.8639
vn -0.0000 0.0701 -0.9975
vn -0.4988 0.0701 -0.8639
vn -0.8639 0.0701 -0.4988
vn -0.9975 0.0701 -0.0000
vn -0.8639 0.0701 0.4988
vn -0.4988 0.0701 0.8639
vn -0.0000 0.0701 0.9975
vn 0.4988 0.0701 0.8639
vn 0.8639 0.0701 0.4988
vn 0.6713 -0.6317 -0.3876
vn 0.7752 -0.6317 -0.0000
vn 0.3876 -0.6317 -0.6713
vn -0.0000 -0.6317 -0.7752
vn -0.3876 -0.6317 -0.6713
vn -0.6713 -0.6317 -0.3876
vn -0.7752 -0.6317 -0.0000
vn -0.6713 -0.6317 0.3876
vn -0.3876 -0.6317 0.6713
vn -0.0000 -0.6317 0.7752
vn 0.3876 -0.6317 0.6713
vn 0.6713 -0.6317 0.3876
vn 0.4218 0.9067 -0.0000
vn 0.3653 0.9067 -0.2109
vn 0.5705 0.7524 -0.3294
vn 0.6587 0.7524 -0.0000
vn 0.2109 0.9067 -0.3652
vn 0.3294 0.7524 -0.5705
vn -0.0000 0.9067 -0.4218
vn -0.0000 0.7524 -0.6587
vn -0.2109 0.9067 -0.3653
vn -0.3294 0.7524 -0.5705
vn -0.3653 0.9067 -0.2109
vn -0.5705 0.7524 -0.3294
vn -0.4218 0.9067 -0.0000
vn -0.6587 0.7524 -0.0000
vn -0.3653 0.9067 0.2109
vn -0.5705 0.7524 0.3294
vn -0.2109 0.9067 0.3653
vn -0.3294 0.7524 0.5705
vn -0.0000 0.9067 0.4218
vn -0.0000 0.7524 0.6587
vn 0.2109 0.9067 0.3653
vn 0.3294 0.7524 0.5705
vn 0.3653 0.9067 0.2109
vn 0.5705 0.7524 0.3294
vn -0.7324 0.5336 -0.4229
vn -0.8457 0.5336 -0.0000
vn -0.7324 0.5336 0.4229
vn -0.4229 0.5336 0.7324
vn -0.0000 0.5336 0.8457
vn 0.4229 0.5336 0.7324
vn 0.7324 0.5336 0.4229
vn 0.8457 0.5336 -0.0000
vn 0.7324 0.5336 -0.4229
vn 0.4229 0.5336 -0.7324
vn -0.0000 0.5336 -0.8457
vn -0.4229 0.5336 -0.7324
vn -0.6489 0.6623 0.3746
vn -0.7493 0.6623 -0.0000
vn -0.3746 0.6623 0.6489
vn -0.0000 0.6623 0.7493
vn 0.3746 0.6623 0.6489
vn 0.6489 0.6623 0.3746
vn 0.7493 0.6623 -0.0000
vn 0.6489 0.6623 -0.3746
vn 0.3746 0.6623 -0.6489
vn -0.0000 0.6623 -0.7493
vn -0.3746 0.6623 -0.6489
vn -0.6489 0.6623 -0.3746
vn 0.5342 -0.7871 -0.3084
vn 0.7518 0.4965 -0.4340
vn 0.8680 0.4966 -0.0000
vn 0.6165 -0.7874 -0.0000
vn 0.3082 -0.7874 -0.5339
vn 0.4340 0.4965 -0.7517
vn -0.0000 -0.7872 -0.6167
vn -0.0000 0.4965 -0.8680
vn -0.3084 -0.7871 -0.5342
vn -0.4340 0.4966 -0.7517
vn -0.5342 -0.7871 -0.3084
vn -0.7517 0.4966 -0.4340
vn -0.6165 -0.7874 -0.0000
vn -0.8680 0.4965 -0.0000
vn -0.5339 -0.7874 0.3082
vn -0.7517 0.4966 0.4340
vn -0.3084 -0.7871 0.5342
vn -0.4340 0.4965 0.7517
vn -0.0000 -0.7874 0.6165
vn -0.0000 0.4965 0.8681
vn 0.3084 -0.7871 0.5342
vn 0.4340 0.4966 0.7517
vn 0.5341 -0.7872 0.3084
vn 0.7517 0.4966 0.4340
vn 0.7517 -0.4965 -0.4340
vn 0.5339 0.7874 -0.3082
vn 0.6169 0.7871 -0.0000
vn 0.8680 -0.4965 -0.0000
vn 0.4340 -0.4966 -0.7517
vn 0.3082 0.7874 -0.5339
vn -0.0000 -0.4966 -0.8680
vn -0.0000 0.7871 -0.6169
vn -0.4340 -0.4965 -0.7517
vn -0.3084 0.7871 -0.5342
vn -0.7517 -0.4966 -0.4340
vn -0.5342 0.7871 -0.3084
vn -0.8680 -0.4965 -0.0000
vn -0.6169 0.7871 -0.0000
vn -0.7517 -0.4966 0.4340
vn -0.5341 0.7872 0.3084
vn -0.4340 -0.4966 0.7517
vn -0.3082 0.7874 0.5339
vn -0.0000 -0.4965 0.8681
vn -0.0000 0.7874 0.6165
vn 0.4340 -0.4965 0.7518
vn 0.3082 0.7874 0.5339
vn 0.7517 -0.4966 0.4340
vn 0.5341 0.7872 0.3084
vt 103.431282 8.073886
vt 69.122169 8.076059
vt 69.120667 -19.822487
vt 103.429939 -19.824591
vt 34.817818 8.078538
vt 34.813175 -19.819862
vt 0.513661 8.092297
vt 0.505489 -19.806126
vt -33.796494 8.107661
vt -33.804295 -19.791183
vt -68.111923 8.119568
vt -68.116043 -19.779341
vt -102.427071 8.121385
vt -102.428177 -19.777361
vt -136.738312 8.122778
vt -136.738998 -19.775986
vt -171.047729 8.123680
vt -171.048782 -19.775051
vt -205.356613 8.126010
vt -205.358063 -19.772657
vt 206.366608 8.058075
vt 172.056488 8.065068
vt 172.051712 -19.833553
vt 206.361542 -19.840496
vt 137.743759 8.072306
vt 137.740799 -19.826229
vt 103.429230 -28.228472
vt 69.119904 -28.226374
vt 69.116402 -56.002033
vt 103.425919 -56.004150
vt 34.811790 -28.223701
vt 34.807266 -55.999187
vt 0.503464 -28.209976
vt 0.498174 -55.985493
vt -33.806225 -28.195229
vt -33.811260 -55.971611
vt -68.117241 -28.183416
vt -68.121094 -55.959915
vt -102.428734 -28.181393
vt -102.431259 -55.957756
vt -136.739380 -28.180004
vt -136.741150 -55.956253
vt -171.049179 -28.179073
vt -171.050751 -55.955399
vt -205.358536 -28.176622
vt -205.360184 -55.952644
vt 206.360062 -28.244448
vt 172.050293 -28.237488
vt 172.045700 -56.013374
vt 206.355255 -56.020473
vt 137.739761 -28.230099
vt 137.735840 -56.005665
vt 69.111443 -88.041138
vt 103.421028 -88.043266
vt 34.801819 -88.038307
vt 0.492371 -88.024628
vt -33.816696 -88.011055
vt -68.125603 -87.999359
vt -102.434654 -87.997215
vt -136.743759 -87.995728
vt -171.052979 -87.994850
vt -205.362366 -87.991928
vt 172.039276 -88.052635
vt 206.348465 -88.060020
vt 137.730301 -88.044670
vt 69.107323 -115.817162
vt 103.416672 -115.819275
vt 34.797150 -115.814438
vt 0.487274 -115.800827
vt -33.821678 -115.786903
vt -68.129761 -115.775169
vt -102.437614 -115.773087
vt -136.745987 -115.771614
vt -171.054947 -115.770729
vt -205.364288 -115.767906
vt 172.033798 -115.828751
vt 206.342728 -115.836243
vt 137.725342 -115.820747
vt 103.415604 -124.223267
vt 69.106285 -124.221153
vt 69.103539 -152.120071
vt 103.412918 -152.122177
vt 34.795731 -124.218468
vt 34.791012 -152.117447
vt 0.485482 -124.204857
vt 0.478686 -152.103775
vt -33.823414 -124.190788
vt -33.829960 -152.089142
vt -68.131020 -124.179054
vt -68.135185 -152.077362
vt -102.438362 -124.176979
vt -102.440369 -152.075348
vt -136.746536 -124.175522
vt -136.747940 -152.073898
vt -171.055481 -124.174629
vt -171.056992 -152.072983
vt -205.364838 -124.171829
vt -205.366592 -152.070251
vt 206.340988 -124.240288
vt 172.032150 -124.232758
vt 172.026672 -152.131622
vt 206.335266 -152.139282
vt 137.723984 -124.224762
vt 137.719925 -152.123703
vt -90.701973 65.406548
vt -82.469429 96.130951
vt -90.701881 126.855301
vt -113.193687 149.347107
vt -143.918030 157.579544
vt -174.642380 149.347107
vt -197.134079 126.855301
vt -205.366592 96.130951
vt -197.134079 65.406578
vt -174.642380 42.914845
vt -143.918060 34.682343
vt -113.193687 42.914780
vt 70.353546 -156.787613
vt 102.161636 -156.789627
vt 36.042599 -156.785004
vt 67.850838 -156.787506
vt 1.728691 -156.771713
vt 33.536858 -156.784470
vt -32.581982 -156.756744
vt -0.773815 -156.770584
vt -66.888474 -156.744858
vt -35.080311 -156.755890
vt -101.192261 -156.742538
vt -69.384132 -156.744400
vt -135.498535 -156.741028
vt -103.690369 -156.742416
vt -169.806778 -156.740082
vt -137.998596 -156.740982
vt -204.116302 -156.737488
vt -172.308121 -156.740067
vt 173.275543 -156.799408
vt 205.083679 -156.806580
vt 138.967606 -156.791458
vt 170.775787 -156.798935
vt 104.661697 -156.789703
vt 136.469940 -156.791229
vt -199.287628 16.445871
vt -167.480179 16.445871
vt -167.480179 22.062994
vt -199.287628 22.062994
vt -135.672592 16.445871
vt -135.672562 22.062967
vt -103.864563 16.445665
vt -103.864563 22.062790
vt -72.056168 16.445641
vt -72.056168 22.062759
vt -40.247356 16.445601
vt -40.247314 22.062712
vt -8.438113 16.445585
vt -8.438113 22.062685
vt 23.371122 16.445562
vt 23.371122 22.062668
vt 55.179577 16.445539
vt 55.179577 22.062668
vt 86.987251 16.445290
vt 86.987289 22.062429
vt 100.103714 16.446329
vt 131.912079 16.445946
vt 131.912170 22.063089
vt 100.103752 22.063501
vt 163.720169 16.445290
vt 163.720230 22.062466
vt 195.528671 16.445290
vt 195.528671 22.062466
vt 38.529022 -40.827583
vt 34.606686 -41.797382
vt 64.180481 -48.340759
vt 64.180466 -47.220940
vt 27.456656 -23.360527
vt 23.642681 -23.920446
vt 24.648115 0.499943
vt 21.035273 0.499933
vt 27.456615 24.360428
vt 23.642653 24.920324
vt 38.528927 41.827530
vt 34.606567 42.797306
vt 64.180283 48.220959
vt 64.180260 49.340763
vt 89.831734 41.827595
vt 93.754074 42.797379
vt 100.904099 24.360548
vt 104.718071 24.920448
vt 103.712646 0.500095
vt 107.325493 0.500088
vt 100.904144 -23.360394
vt 104.718109 -23.920307
vt 89.831848 -40.827515
vt 93.754196 -41.797306
vt 222.114868 -41.797390
vt 218.192490 -40.827591
vt 192.541061 -47.220943
vt 192.541031 -48.340767
vt 233.078827 -23.920444
vt 229.264877 -23.360525
vt 235.686249 0.499933
vt 232.073441 0.499944
vt 233.078873 24.920326
vt 229.264893 24.360434
vt 222.114944 42.797306
vt 218.192581 41.827530
vt 192.541260 49.340763
vt 192.541245 48.220959
vt 162.967438 42.797382
vt 166.889786 41.827599
vt 152.003448 24.920450
vt 155.817398 24.360552
vt 149.396027 0.500089
vt 153.008865 0.500095
vt 152.003418 -23.920307
vt 155.817368 -23.360392
vt 162.967316 -41.797306
vt 166.889679 -40.827515
vt 64.180458 -45.855404
vt 38.918697 -39.644993
vt 27.858177 -22.677757
vt 25.033661 0.499945
vt 27.858149 23.677662
vt 38.918602 40.644939
vt 64.180283 46.855419
vt 89.442047 40.645004
vt 100.502579 23.677776
vt 103.327103 0.500092
vt 100.502617 -22.677628
vt 89.442169 -39.644924
vt 34.966175 -40.614788
vt 64.180481 -46.975224
vt 93.394707 -40.614719
vt 104.384850 -23.237541
vt 107.013237 0.500086
vt 104.384811 24.237677
vt 93.394577 41.614784
vt 64.180260 47.975224
vt 34.966068 41.614719
vt 23.975916 24.237558
vt 21.347525 0.499935
vt 23.975946 -23.237675
vt 192.541031 -46.975231
vt 221.755371 -40.614796
vt 232.745605 -23.237675
vt 235.374008 0.499935
vt 232.745605 24.237560
vt 221.755447 41.614719
vt 192.541260 47.975224
vt 163.326920 41.614788
vt 152.336700 24.237679
vt 149.708267 0.500086
vt 152.336670 -23.237541
vt 163.326797 -40.614719
vt 217.802826 -39.645000
vt 192.541061 -45.855408
vt 167.279343 -39.644924
vt 156.218903 -22.677626
vt 153.394409 0.500092
vt 156.218933 23.677780
vt 167.279465 40.645008
vt 192.541245 46.855419
vt 217.802917 40.644939
vt 228.863373 23.677666
vt 231.687881 0.499945
vt 228.863373 -22.677755
s 1
usemtl wire_115115115
f 1/1/1 2/2/2 3/3/3 4/4/4
f 2/2/2 5/5/5 6/6/6 3/3/3
f 5/5/5 7/7/7 8/8/8 6/6/6
f 7/7/7 9/9/9 10/10/10 8/8/8
f 9/9/9 11/11/11 12/12/12 10/10/10
f 11/11/11 13/13/13 14/14/14 12/12/12
f 13/13/13 15/15/15 16/16/16 14/14/14
f 15/15/15 17/17/17 18/18/18 16/16/16
f 17/17/17 19/19/19 20/20/20 18/18/18
f 19/21/19 21/22/21 22/23/22 20/24/20
f 21/22/21 23/25/23 24/26/24 22/23/22
f 23/25/23 1/1/1 4/4/4 24/26/24
f 25/27/25 26/28/26 27/29/27 28/30/28
f 26/28/26 29/31/29 30/32/30 27/29/27
f 29/31/29 31/33/31 32/34/32 30/32/30
f 31/33/31 33/35/33 34/36/34 32/34/32
f 33/35/33 35/37/35 36/38/36 34/36/34
f 35/37/35 37/39/37 38/40/38 36/38/36
f 37/39/37 39/41/39 40/42/40 38/40/38
f 39/41/39 41/43/41 42/44/42 40/42/40
f 41/43/41 43/45/43 44/46/44 42/44/42
f 43/47/43 45/48/45 46/49/46 44/50/44
f 45/48/45 47/51/47 48/52/48 46/49/46
f 47/51/47 25/27/25 28/30/28 48/52/48
f 28/30/28 27/29/27 49/53/49 50/54/50
f 27/29/27 30/32/30 51/55/51 49/53/49
f 30/32/30 32/34/32 52/56/52 51/55/51
f 32/34/32 34/36/34 53/57/53 52/56/52
f 34/36/34 36/38/36 54/58/54 53/57/53
f 36/38/36 38/40/38 55/59/55 54/58/54
f 38/40/38 40/42/40 56/60/56 55/59/55
f 40/42/40 42/44/42 57/61/57 56/60/56
f 42/44/42 44/46/44 58/62/58 57/61/57
f 44/50/44 46/49/46 59/63/59 58/64/58
f 46/49/46 48/52/48 60/65/60 59/63/59
f 48/52/48 28/30/28 50/54/50 60/65/60
f 50/54/50 49/53/49 61/66/61 62/67/62
f 49/53/49 51/55/51 63/68/63 61/66/61
f 51/55/51 52/56/52 64/69/64 63/68/63
f 52/56/52 53/57/53 65/70/65 64/69/64
f 53/57/53 54/58/54 66/71/66 65/70/65
f 54/58/54 55/59/55 67/72/67 66/71/66
f 55/59/55 56/60/56 68/73/68 67/72/67
f 56/60/56 57/61/57 69/74/69 68/73/68
f 57/61/57 58/62/58 70/75/70 69/74/69
f 58/64/58 59/63/59 71/76/71 70/77/70
f 59/63/59 60/65/60 72/78/72 71/76/71
f 60/65/60 50/54/50 62/67/62 72/78/72
f 73/79/73 74/80/74 75/81/75 76/82/76
f 74/80/74 77/83/77 78/84/78 75/81/75
f 77/83/77 79/85/79 80/86/80 78/84/78
f 79/85/79 81/87/81 82/88/82 80/86/80
f 81/87/81 83/89/83 84/90/84 82/88/82
f 83/89/83 85/91/85 86/92/86 84/90/84
f 85/91/85 87/93/87 88/94/88 86/92/86
f 87/93/87 89/95/89 90/96/90 88/94/88
f 89/95/89 91/97/91 92/98/92 90/96/90
f 91/99/91 93/100/93 94/101/94 92/102/92
f 93/100/93 95/103/95 96/104/96 94/101/94
f 95/103/95 73/79/73 76/82/76 96/104/96
f 97/105/97 98/106/98 99/107/99 100/108/100 101/109/101 102/110/102 103/111/103 104/112/104 105/113/105 106/114/106 107/115/107 108/116/108
f 76/82/76 75/81/75 109/117/109 110/118/110
f 75/81/75 78/84/78 111/119/111 109/120/109
f 78/84/78 80/86/80 112/121/112 111/122/111
f 80/86/80 82/88/82 113/123/113 112/124/112
f 82/88/82 84/90/84 114/125/114 113/126/113
f 84/90/84 86/92/86 115/127/115 114/128/114
f 86/92/86 88/94/88 116/129/116 115/130/115
f 88/94/88 90/96/90 117/131/117 116/132/116
f 90/96/90 92/98/92 118/133/118 117/134/117
f 92/102/92 94/101/94 119/135/119 118/136/118
f 94/101/94 96/104/96 120/137/120 119/138/119
f 96/104/96 76/82/76 110/139/110 120/140/120
f 110/141/110 109/142/109 99/143/99 98/144/98
f 109/142/109 111/145/111 100/146/100 99/143/99
f 111/145/111 112/147/112 101/148/101 100/146/100
f 112/147/112 113/149/113 102/150/102 101/148/101
f 113/149/113 114/151/114 103/152/103 102/150/102
f 114/151/114 115/153/115 104/154/104 103/152/103
f 115/153/115 116/155/116 105/156/105 104/154/104
f 116/155/116 117/157/117 106/158/106 105/156/105
f 117/157/117 118/159/118 107/160/107 106/158/106
f 118/161/118 119/162/119 108/163/108 107/164/107
f 119/162/119 120/165/120 97/166/97 108/163/108
f 120/165/120 110/167/110 98/168/98 97/166/97
f 121/169/121 122/170/122 123/171/123 124/172/124
f 125/173/125 126/174/126 122/170/122 121/169/121
f 127/175/127 128/176/128 126/174/126 125/173/125
f 129/177/129 130/178/130 128/176/128 127/175/127
f 131/179/131 132/180/132 130/178/130 129/177/129
f 133/181/133 134/182/134 132/180/132 131/179/131
f 135/183/135 136/184/136 134/182/134 133/181/133
f 137/185/137 138/186/138 136/184/136 135/183/135
f 139/187/139 140/188/140 138/186/138 137/185/137
f 141/189/141 142/190/142 140/188/140 139/187/139
f 143/191/143 144/192/144 142/190/142 141/189/141
f 124/172/124 123/171/123 144/192/144 143/191/143
f 145/193/145 146/194/146 147/195/147 148/196/148
f 149/197/149 150/198/150 146/194/146 145/193/145
f 151/199/151 152/200/152 150/198/150 149/197/149
f 153/201/153 154/202/154 152/200/152 151/199/151
f 155/203/155 156/204/156 154/202/154 153/201/153
f 157/205/157 158/206/158 156/204/156 155/203/155
f 159/207/159 160/208/160 158/206/158 157/205/157
f 161/209/161 162/210/162 160/208/160 159/207/159
f 163/211/163 164/212/164 162/210/162 161/209/161
f 165/213/165 166/214/166 164/212/164 163/211/163
f 167/215/167 168/216/168 166/214/166 165/213/165
f 148/196/148 147/195/147 168/216/168 167/215/167
f 4/217/4 3/218/3 121/169/121 124/172/124
f 3/218/3 6/219/6 125/173/125 121/169/121
f 6/219/6 8/220/8 127/175/127 125/173/125
f 8/220/8 10/221/10 129/177/129 127/175/127
f 10/221/10 12/222/12 131/179/131 129/177/129
f 12/222/12 14/223/14 133/181/133 131/179/131
f 14/223/14 16/224/16 135/183/135 133/181/133
f 16/224/16 18/225/18 137/185/137 135/183/135
f 18/225/18 20/226/20 139/187/139 137/185/137
f 20/226/20 22/227/22 141/189/141 139/187/139
f 22/227/22 24/228/24 143/191/143 141/189/141
f 24/228/24 4/217/4 124/172/124 143/191/143
f 26/229/26 25/230/25 123/171/123 122/170/122
f 25/230/25 47/231/47 144/192/144 123/171/123
f 47/231/47 45/232/45 142/190/142 144/192/144
f 45/232/45 43/233/43 140/188/140 142/190/142
f 43/233/43 41/234/41 138/186/138 140/188/140
f 41/234/41 39/235/39 136/184/136 138/186/138
f 39/235/39 37/236/37 134/182/134 136/184/136
f 37/236/37 35/237/35 132/180/132 134/182/134
f 35/237/35 33/238/33 130/178/130 132/180/132
f 33/238/33 31/239/31 128/176/128 130/178/130
f 31/239/31 29/240/29 126/174/126 128/176/128
f 29/240/29 26/229/26 122/170/122 126/174/126
f 62/241/62 61/242/61 145/193/145 148/196/148
f 61/242/61 63/243/63 149/197/149 145/193/145
f 63/243/63 64/244/64 151/199/151 149/197/149
f 64/244/64 65/245/65 153/201/153 151/199/151
f 65/245/65 66/246/66 155/203/155 153/201/153
f 66/246/66 67/247/67 157/205/157 155/203/155
f 67/247/67 68/248/68 159/207/159 157/205/157
f 68/248/68 69/249/69 161/209/161 159/207/159
f 69/249/69 70/250/70 163/211/163 161/209/161
f 70/250/70 71/251/71 165/213/165 163/211/163
f 71/251/71 72/252/72 167/215/167 165/213/165
f 72/252/72 62/241/62 148/196/148 167/215/167
f 74/253/74 73/254/73 147/195/147 146/194/146
f 73/254/73 95/255/95 168/216/168 147/195/147
f 95/255/95 93/256/93 166/214/166 168/216/168
f 93/256/93 91/257/91 164/212/164 166/214/166
f 91/257/91 89/258/89 162/210/162 164/212/164
f 89/258/89 87/259/87 160/208/160 162/210/162
f 87/259/87 85/260/85 158/206/158 160/208/160
f 85/260/85 83/261/83 156/204/156 158/206/158
f 83/261/83 81/262/81 154/202/154 156/204/156
f 81/262/81 79/263/79 152/200/152 154/202/154
f 79/263/79 77/264/77 150/198/150 152/200/152
f 77/264/77 74/253/74 146/194/146 150/198/150
